<?xml version="1.0" encoding="UTF-8"?>
<svg width="500px" height="221px" viewBox="0 0 500 221" version="1.1" xmlns="http://www.w3.org/2000/svg" xmlns:xlink="http://www.w3.org/1999/xlink">
    <title>logo-alt</title>
    <g id="Page-1" stroke="none" stroke-width="1" fill="none" fill-rule="evenodd">
        <g id="logo-alt" transform="translate(0.000000, 0.990357)" fill="#000000" fill-rule="nonzero">
            <path d="M404.95,58.689643 L252.06,7.89964301 C251.969157,7.86915377 251.870843,7.86915377 251.78,7.89964301 L98.8,58.729643 C98.6197653,58.7901297 98.4987626,58.9595334 98.5,59.149643 L98.5,82.319643 C98.5,82.5626483 98.3030053,82.759643 98.06,82.759643 L92.94,82.759643 C92.6969947,82.759643 92.5,82.5626483 92.5,82.319643 L92.5,50.389643 C92.5,50.1968456 92.6258096,50.0266058 92.81,49.969643 L251.8,0.0196430089 C251.884688,-0.00654766962 251.975312,-0.00654766962 252.06,0.0196430089 L411.19,50.009643 C411.37419,50.0666058 411.5,50.2368456 411.5,50.429643 L411.5,82.319643 C411.5,82.5626483 411.303005,82.759643 411.06,82.759643 L405.69,82.759643 C405.446995,82.759643 405.25,82.5626483 405.25,82.319643 L405.25,59.109643 C405.251237,58.9195334 405.130235,58.7501297 404.95,58.689643 L404.95,58.689643 Z" id="Path"></path>
            <path d="M245.8,91.159643 C245.773333,90.8929763 245.796667,90.6263097 245.87,90.359643 C245.969319,89.99854 246.301136,89.748653 246.68,89.749643 L249.28,89.769643 C249.646667,89.769643 249.89,89.9429763 250.01,90.289643 L256.88,110.279643 C256.98,110.572976 256.886667,110.772976 256.6,110.879643 L253,112.239643 C252.830323,112.304278 252.641844,112.298371 252.476549,112.223236 C252.311253,112.148102 252.18287,112.009981 252.12,111.839643 C250.25,106.879643 247.29,101.559643 242.3,99.059643 C240.17,97.989643 232.92,96.069643 230.17,97.909643 C229.907151,98.0840199 229.749384,98.3770144 229.75,98.689643 C229.75,117.129643 229.753333,135.499643 229.76,153.799643 C229.76,154.779643 230.016667,155.679643 230.53,156.499643 C232.08,158.979643 234.97,158.499643 237.55,158.479643 C238.016667,158.479643 238.25,158.712976 238.25,159.179643 L238.25,162.509643 C238.25,163.009643 238,163.259643 237.5,163.259643 L212,163.259643 C211.861929,163.259643 211.75,163.147714 211.75,163.009643 L211.75,158.749643 C211.75,158.629643 211.81,158.56631 211.93,158.559643 C215.67,158.259643 220.24,159.309643 220.24,153.609643 C220.253333,134.549643 220.256667,116.44631 220.25,99.299643 C220.250832,98.3275292 219.521595,97.5119912 218.56,97.409643 C207.7,96.259643 201.29,102.419643 197.93,111.879643 C197.796667,112.252976 197.543333,112.372976 197.17,112.239643 L193.53,110.949643 C193.17,110.822976 193.05,110.57631 193.17,110.209643 L199.9,90.239643 C200.000703,89.9361104 200.284445,89.7334373 200.6,89.7395044 L203.3,89.769643 C203.61124,89.7763257 203.87044,90.0057816 203.91,90.309643 L204.04,91.329643 C204.1,91.7829763 204.36,92.009643 204.82,92.009643 L245.02,92.009643 C245.593333,92.009643 245.853333,91.7263097 245.8,91.159643 Z" id="Path"></path>
            <path d="M332.61,117.839643 C336.96,137.859643 327.46,159.969643 305.95,163.769643 C295.23,165.659643 283.86,163.439643 275.77,155.909643 C268.616667,149.25631 264.74,140.659643 264.14,130.119643 C262.9,108.369643 277.75,90.719643 300.05,90.8291316 C316.11,90.909643 329.28,102.519643 332.61,117.839643 Z M296.68,96.769643 C277.33,98.839643 272.86,120.989643 275.5,136.399643 C276.726667,143.56631 279.653333,149.229643 284.28,153.389643 C293.21,161.409643 307.39,161.039643 315.02,151.459643 C323.81,140.429643 324.81,123.929643 319.93,111.129643 C315.823333,100.342976 308.073333,95.5563097 296.68,96.769643 Z" id="Shape"></path>
            <path d="M5.06,96.829643 C3.52,96.569643 2.00333333,96.4629763 0.51,96.509643 C0.17,96.5229763 0,96.3629763 0,96.029643 L0,92.509643 C0,92.1763097 0.166666667,92.009643 0.5,92.009643 L25.74,92.009643 C25.84,92.009643 25.8966667,92.059643 25.91,92.159643 C26.1633333,94.1063097 26.1433333,95.5129763 25.85,96.379643 C25.7966667,96.519643 25.6966667,96.5829763 25.55,96.569643 C18.25,95.909643 17.62,99.739643 17.58,105.269643 C17.4466667,121.542976 17.4433333,137.25631 17.57,152.409643 C17.59,154.569643 18.2933333,156.27631 19.68,157.529643 C21.33,159.019643 23.53,158.459643 25.54,158.509643 C25.8466667,158.51631 26,158.672976 26,158.979643 L25.99,163.009643 C25.99,163.17631 25.91,163.259643 25.75,163.259643 L0.5,163.259643 C0.166666667,163.259643 0,163.092976 0,162.759643 L0.01,158.969643 C0.01,158.715592 0.215949015,158.509643 0.47,158.509643 C3.46,158.449643 6.02,159.149643 7.73,155.929643 C8.06333333,155.29631 8.23,154.609643 8.23,153.869643 C8.27666667,135.662976 8.27666667,118.092976 8.23,101.159643 C8.23,99.659643 6.64,97.099643 5.06,96.829643 Z" id="Path"></path>
            <path d="M93.23,143.639643 C93.2766667,130.332976 93.2666667,116.79631 93.2,103.029643 C93.18,98.009643 89.8,96.059643 85.33,96.559643 C85.1817962,96.5768919 85.0333302,96.5308771 84.9223622,96.4333018 C84.8113942,96.3357265 84.7486181,96.1959939 84.75,96.049643 L84.75,92.509643 C84.7473152,92.3779994 84.798806,92.2508139 84.8928668,92.1567531 C84.9869276,92.0626923 85.1156424,92.009643 85.25,92.009643 L107.26,92.009643 C107.6,92.009643 107.77,92.179643 107.77,92.519643 L107.73,96.209643 C107.73,96.389643 107.64,96.479643 107.46,96.479643 C102.76,96.489643 100.1,96.969643 99.56,102.379643 C99.4266667,103.659643 99.3666667,105.032976 99.38,106.499643 C99.5533333,125.152976 99.5733333,143.869643 99.44,162.649643 C99.44,163.05631 99.2366667,163.259643 98.83,163.259643 L93.81,163.259643 C93.4766667,163.259643 93.2233333,163.112976 93.05,162.819643 L56.88,100.759643 C56.4733333,100.06631 56.27,100.119643 56.27,100.919643 C56.2566667,118.639643 56.2466667,135.742976 56.24,152.229643 C56.24,156.709643 59.5,159.209643 63.79,158.449643 C64.43,158.33631 64.75,158.602976 64.75,159.249643 L64.75,162.379643 C64.75,162.96631 64.46,163.259643 63.88,163.259643 L42,163.259643 C41.6666667,163.259643 41.5,163.092976 41.5,162.759643 L41.5,158.799643 C41.5,158.632976 41.5866667,158.54631 41.76,158.539643 C43.53,158.449643 45.62,158.829643 47.21,158.049643 C50.17,156.589643 50.16,152.599643 50.19,149.749643 C50.35,131.529643 50.2966667,116.032976 50.03,103.259643 C50.0166667,102.44631 49.9966667,101.619643 49.97,100.779643 C49.91,98.469643 48.79,97.079643 46.46,96.789643 C44.7733333,96.5763097 43.2233333,96.4729763 41.81,96.479643 C41.61,96.4863097 41.51,96.389643 41.51,96.189643 L41.49,92.519643 C41.49,92.179643 41.6566667,92.009643 41.99,92.009643 L61.98,92.009643 C62.4,92.009643 62.7133333,92.189643 62.92,92.549643 L92.7,143.789643 C93.0533333,144.402976 93.23,144.352976 93.23,143.639643 Z" id="Path"></path>
            <path d="M141.25,98.699643 L141.25,124.319643 C141.25,124.732976 141.456667,124.949643 141.87,124.969643 C146.176667,125.17631 149.96,125.00631 153.22,124.459643 C159.19,123.459643 160.4,117.569643 159.96,112.299643 C159.946667,112.10631 160.036667,112.009643 160.23,112.009643 L164.75,112.009643 C164.888071,112.009643 165,112.121572 165,112.259643 L165,142.759643 C165,143.099643 164.833333,143.269643 164.5,143.269643 L160.46,143.259643 C160.106667,143.259643 159.943333,143.082976 159.97,142.729643 C160.41,137.039643 159.21,130.899643 152.69,130.409643 C149.81,130.189643 146.19,130.149643 141.83,130.289643 C141.483333,130.302976 141.306667,130.48631 141.3,130.839643 C141.166667,138.552976 141.173333,145.99631 141.32,153.169643 C141.36,155.429643 142.316667,157.05631 144.19,158.049643 C145.81,158.909643 147.77,158.369643 149.55,158.559643 C149.683333,158.572976 149.75,158.642976 149.75,158.769643 L149.75,163.009643 C149.75,163.17631 149.666667,163.259643 149.5,163.259643 L124,163.259643 C123.861929,163.259643 123.7499,163.147714 123.7499,163.009643 L123.7499,158.759643 C123.7499,158.612976 123.823333,158.53631 123.97,158.529643 C126.11,158.459643 128.67,159.029643 130.35,157.379643 C131.43,156.312976 131.97,155.059643 131.97,153.619643 C132.01,135.399643 132.016667,118.179643 131.99,101.959643 C131.98,97.139643 128.4,96.059643 124.33,96.559643 C124.183087,96.5800069 124.034588,96.535407 123.923206,96.4374678 C123.811824,96.3395286 123.748595,96.1979536 123.7499,96.049643 L123.7499,92.509643 C123.747315,92.3779994 123.798806,92.2508139 123.892867,92.1567531 C123.986928,92.0626923 124.115642,92.009643 124.25,92.009643 L175.28,92.009643 C175.653333,92.009643 175.9,92.1863097 176.02,92.539643 L182.07,110.359643 C182.176667,110.679643 182.076667,110.902976 181.77,111.029643 L178.21,112.489643 C178.069681,112.548214 177.911578,112.547209 177.772015,112.486857 C177.632453,112.426506 177.523432,112.311998 177.47,112.169643 C173.74,101.999643 168.16,97.859643 157.22,97.979643 C152.113333,98.039643 147.033333,98.039643 141.98,97.979643 C141.493333,97.9729763 141.25,98.2129763 141.25,98.699643 Z" id="Path"></path>
            <path d="M403.01,97.409643 C401.71,96.5963097 400,96.3229763 397.88,96.589643 C397.46,96.6429763 397.25,96.4563097 397.25,96.029643 L397.25,92.509643 C397.25,92.1763097 397.416667,92.009643 397.75,92.009643 L420,92.009643 C420.138071,92.009643 420.25,92.1215718 420.25,92.259643 L420.25,96.269643 C420.25,96.4763097 420.146667,96.569643 419.94,96.549643 C416.11,96.229643 412.13,97.129643 412.1,101.759643 C412.013333,113.499643 411.973333,125.082976 411.98,136.509643 C412,151.159643 404.42,162.149643 389.19,164.069643 C379.543333,165.282976 371.36,162.639643 364.64,156.139643 C359.48,151.159643 358.35,143.959643 358.43,136.759643 C358.556667,125.26631 358.56,113.772976 358.44,102.279643 C358.39,97.209643 354.92,96.159643 350.61,96.559643 C350.036667,96.6129763 349.75,96.3563097 349.75,95.789643 L349.75,92.759643 C349.75,92.259643 350,92.009643 350.5,92.009643 L376,92.009643 C376.138071,92.009643 376.25,92.1215718 376.25,92.259643 L376.25,96.269643 C376.25016,96.3403696 376.220393,96.4080651 376.167562,96.4571227 C376.11473,96.5061803 376.043394,96.5323661 375.97,96.529643 C374.103333,96.429643 372.433333,96.5763097 370.96,96.969643 C369.92,97.2429763 369.06,97.9863097 368.38,99.199643 C367.74,100.339643 368.17,101.349643 367.91,102.519643 C367.796667,103.039643 367.74,103.579643 367.74,104.139643 C367.7,114.38631 367.733333,124.84631 367.84,135.519643 C367.92,143.479643 368.75,150.709643 376.23,155.019643 C383.563333,159.24631 390.863333,158.91631 398.13,154.029643 C404.71,149.599643 405.63,143.169643 405.7,135.779643 C405.793333,124.679643 405.79,113.659643 405.69,102.719643 C405.67,100.28631 404.776667,98.5163097 403.01,97.409643 Z" id="Path"></path>
            <path d="M470.98,129.289643 C470.875359,129.287241 470.780098,129.346972 470.735229,129.44312 C470.69036,129.539268 470.703893,129.65467 470.77,129.739643 C476.776667,137.26631 483.013333,145.20631 489.48,153.559643 C492,156.809643 495.16,158.939643 499.43,158.469643 C499.576755,158.455387 499.722639,158.5017 499.831344,158.597056 C499.94005,158.692411 500.001354,158.827842 500.000022,158.969643 L500.000022,162.759643 C500.000022,163.092976 499.833333,163.259643 499.5,163.259643 L485.02,163.259643 C484.69227,163.259643 484.384092,163.103717 484.19,162.839643 L459.79,129.759643 C459.558133,129.44521 459.190679,129.259627 458.8,129.259643 L451.7,129.259643 C451.22,129.259643 450.983333,129.49631 450.99,129.969643 C451.023333,137.129643 451.016667,144.772976 450.97,152.899643 C450.94,158.589643 454.29,158.869643 458.92,158.469643 C459.004799,158.461132 459.089224,158.487884 459.152191,158.543219 C459.215157,158.598553 459.250721,158.677246 459.25,158.759643 L459.25,163.009643 C459.25,163.147714 459.138071,163.259643 459,163.259643 L433.75,163.259643 C433.416667,163.259643 433.25,163.092976 433.25,162.759643 L433.25,158.809643 C433.25,158.63631 433.336667,158.54631 433.51,158.539643 C435.6,158.419643 438.49,159.119643 440.11,157.439643 C441.176667,156.32631 441.713333,154.992976 441.72,153.439643 C441.766667,136.392976 441.766667,119.19631 441.72,101.849643 C441.71,99.679643 440.4,96.969643 437.96,96.689643 C436.486667,96.529643 435.09,96.469643 433.77,96.509643 C433.423333,96.5229763 433.25,96.3563097 433.25,96.009643 L433.25,92.519643 C433.25,92.179643 433.42,92.009643 433.76,92.009643 C445.806667,92.009643 457.553333,92.0263097 469,92.059643 C479.43,92.079643 490.65,94.119643 493.49,105.539643 C494.763333,110.632976 494.12,115.36631 491.56,119.739643 C487.45,126.769643 479,129.329643 470.98,129.289643 Z M450.96,98.209643 L451.04,123.809643 C451.039968,123.922788 451.085588,124.031161 451.166529,124.11022 C451.247471,124.189279 451.356887,124.232337 451.47,124.229762 L470.64,124.159643 C477.780302,124.131058 483.546593,118.602045 483.520092,111.809643 L483.520092,109.969643 C483.507283,106.70715 482.132538,103.583568 479.698254,101.286189 C477.26397,98.9888099 473.969595,97.7058644 470.54,97.7195332 L451.37,97.789643 C451.141955,97.7950742 450.96,97.9815332 450.96,98.209643 L450.96,98.209643 Z" id="Shape"></path>
            <path d="M405.25,209.129643 L405.25,169.629643 C405.25,169.425298 405.415655,169.259643 405.62,169.259643 L411.13,169.259643 C411.334345,169.259643 411.5,169.425298 411.5,169.629643 L411.5,219.639643 C411.5,219.843988 411.334345,220.009643 411.13,220.009643 L93.62,220.009643 C93.4156546,220.009643 93.25,219.843988 93.25,219.639643 L93.25,175.389643 C93.25,175.185298 93.4156546,175.019643 93.62,175.019643 L98.88,175.009643 C98.9781301,175.009643 99.072241,175.048625 99.1416295,175.118013 C99.211018,175.187402 99.25,175.281513 99.25,175.379643 L99.25,209.129643 C99.25,209.333988 99.4156546,209.499643 99.62,209.499643 L404.88,209.499643 C404.97813,209.499643 405.072241,209.460661 405.14163,209.391273 C405.211018,209.321884 405.25,209.227773 405.25,209.129643 Z" id="Path"></path>
        </g>
    </g>
</svg>